<svg id="Layer_1" height="512" viewBox="0 0 512 512" width="512" xmlns="http://www.w3.org/2000/svg" data-name="Layer 1"><path d="m481.89 449.05v.35h-51.15v-.35-186.21h51.15z" fill="#5fcda4"/><path d="m370.19 449.05v.35h-51.16v-.35-238.77h51.16z" fill="#5fa8ed"/><path d="m258.48 449.05v.35h-51.15v-.35-133.66h51.15z" fill="#5fcda4"/><path d="m236.76 178.13-12.06 31.24-18.63-.55a92.222 92.222 0 0 1 -21.92 23.01l1.37 18.63-30.68 13.43-12.88-13.43a102.976 102.976 0 0 1 -31.78.83l-12.05 13.97-31.24-12.06.55-18.63a92.182 92.182 0 0 1 -23.01-21.91l-18.63 1.37-13.43-30.69 13.42-12.88a103.276 103.276 0 0 1 -.82-31.78l-13.97-12.05 12.05-31.24 18.64.55a92.182 92.182 0 0 1 21.91-23.01l-1.37-18.63 30.69-13.43 12.87 13.43a102.738 102.738 0 0 1 31.79-.82l12.05-13.98 31.24 12.06-.55 18.63a92.043 92.043 0 0 1 23.01 21.92l18.63-1.37 13.43 30.68-13.43 12.88a102.976 102.976 0 0 1 .83 31.78zm-31.33-25.75a81.55 81.55 0 1 0 -81.55 81.55 81.548 81.548 0 0 0 81.55-81.55z" fill="#6d6d93"/><circle cx="123.88" cy="152.38" fill="#f3ce7d" r="65.43"/><path d="m146.77 449.05v.35h-51.15v-.35-56.67h51.15z" fill="#5fa8ed"/><path d="m78 448h423v25h-423z" fill="#7d8595"/><path d="m138.88 88.7a65.43 65.43 0 1 0 0 127.366 65.424 65.424 0 0 1 0-127.366z" fill="#ceae6f"/><path d="m130.281 291.213h89.178v11.999h-89.178z" fill="#b0b5ca" transform="matrix(.827 -.563 .563 .827 -136.916 149.887)"/><path d="m235.784 195.784h101.393v11.999h-101.393z" fill="#b0b5ca" transform="matrix(.733 -.68 .68 .733 -60.754 248.857)"/><path d="m397.075 137.881h11.999v71.891h-11.999z" fill="#b0b5ca" transform="matrix(.404 -.915 .915 .404 81.352 472.456)"/><path d="m298.074 245.153a6 6 0 0 1 -6-6v-2.984a6 6 0 0 1 12 0v2.984a6 6 0 0 1 -6 6z" fill="#d4e1f4"/><path d="m298.074 351.132a6 6 0 0 1 -6-6v-86.669a6 6 0 1 1 12 0v86.669a6 6 0 0 1 -6 6z" fill="#d4e1f4"/><path d="m123.878 129.2a8.436 8.436 0 0 1 8.426 8.426 6.031 6.031 0 0 0 12.061 0 20.842 20.842 0 0 0 -14.365-19.526v-2.83a6 6 0 0 0 -12 0v2.83a20.953 20.953 0 0 0 -14.487 19.523 20.423 20.423 0 0 0 20.395 20.427 8.423 8.423 0 0 1 .074 16.846c-.032 0-.068 0-.1 0s-.066 0-.1 0a8.433 8.433 0 0 1 -8.33-8.42 5.97 5.97 0 1 0 -11.94 0c0 9.175 6.487 16.953 14.487 19.523v3.485a6 6 0 0 0 12 0v-3.484a20.843 20.843 0 0 0 14.365-19.523 20.475 20.475 0 0 0 -20.457-20.426 8.427 8.427 0 0 1 -.03-16.853z" fill="#4e6cca"/><g fill="#e87187"><path d="m121.546 301.77a32.277 32.277 0 1 0 32.278 32.277 32.313 32.313 0 0 0 -32.278-32.277z"/><path d="m233.253 224.78a32.278 32.278 0 1 0 32.278 32.278 32.314 32.314 0 0 0 -32.278-32.278z"/><path d="m344.96 119.673a32.277 32.277 0 1 0 32.278 32.276 32.313 32.313 0 0 0 -32.278-32.276z"/><path d="m456.667 172.227a32.277 32.277 0 1 0 32.278 32.273 32.313 32.313 0 0 0 -32.278-32.273z"/></g></svg>